name C:\Users\u0101727\Documents\MyRepositories\upper-imu-dc\Results\main_tracking\Case_44\FLX01_orientations_groundFrame.mot
datacolumns 13
datarows 36
range 2.01000000 2.36000000
endheader 
time	radius_imu_[0][0]	radius_imu_[0][1]	radius_imu_[0][2]	radius_imu_[1][0]	radius_imu_[1][1]	radius_imu_[1][2]	radius_imu_[2][0]	radius_imu_[2][1]	radius_imu_[2][2]	radius_imu_x	radius_imu_y	radius_imu_z	
          2.01000000	          0.43784469	         -0.86631538	         -0.24039486	         -0.36957204	         -0.41718259	          0.83028621	         -0.81957827	         -0.27469319	         -0.50282712	         -2.11532841	         -0.24277262	          1.10282988	
          2.02000000	          0.44303493	         -0.86152070	         -0.24799622	         -0.37067009	         -0.42790364	          0.82431921	         -0.81628655	         -0.27327742	         -0.50891621	         -2.12389558	         -0.25061132	          1.09581574	
          2.03000000	          0.44837355	         -0.85656405	         -0.25545876	         -0.37167192	         -0.43858115	          0.81823380	         -0.81290906	         -0.27192755	         -0.51500900	         -2.13256450	         -0.25832218	          1.08856052	
          2.04000000	          0.45385400	         -0.85144908	         -0.26277559	         -0.37257575	         -0.44920801	          0.81203416	         -0.80944664	         -0.27064114	         -0.52110413	         -2.14133363	         -0.26589777	          1.08106962	
          2.05000000	          0.45946927	         -0.84617980	         -0.26994023	         -0.37337942	         -0.45977698	          0.80572510	         -0.80590061	         -0.26941579	         -0.52719952	         -2.15020027	         -0.27333096	          1.07334908	
          2.06000000	          0.46521205	         -0.84076056	         -0.27694663	         -0.37408061	         -0.47028082	          0.79931199	         -0.80227268	         -0.26824921	         -0.53329252	         -2.15916077	         -0.28061498	          1.06540554	
          2.07000000	          0.47107481	         -0.83519594	         -0.28378913	         -0.37467693	         -0.48071241	          0.79280059	         -0.79856479	         -0.26713915	         -0.53938016	         -2.16821079	         -0.28774340	          1.05724606	
          2.08000000	          0.47704993	         -0.82949075	         -0.29046248	         -0.37516624	         -0.49106484	          0.78619693	         -0.79477900	         -0.26608347	         -0.54545938	         -2.17734560	         -0.29471012	          1.04887802	
          2.09000000	          0.48312986	         -0.82364994	         -0.29696181	         -0.37554674	         -0.50133153	          0.77950711	         -0.79091730	         -0.26508013	         -0.55152729	         -2.18656037	         -0.30150935	          1.04030898	
          2.10000000	          0.48930730	         -0.81767848	         -0.30328248	         -0.37581721	         -0.51150635	          0.77273713	         -0.78698144	         -0.26412715	         -0.55758144	         -2.19585047	         -0.30813550	          1.03154647	
          2.11000000	          0.49557533	         -0.81158136	         -0.30942009	         -0.37597709	         -0.52158366	          0.76589275	         -0.78297275	         -0.26322268	         -0.56362000	         -2.20521179	         -0.31458314	          1.02259783	
          2.12000000	          0.50192754	         -0.80536345	         -0.31537035	         -0.37602661	         -0.53155839	          0.75897936	         -0.77889199	         -0.26236500	         -0.56964189	         -2.21464086	         -0.32084690	          1.01347005	
          2.13000000	          0.50835816	         -0.79902950	         -0.32112900	         -0.37596670	         -0.54142603	          0.75200193	         -0.77473933	         -0.26155250	         -0.57564682	         -2.22413493	         -0.32692139	          1.00416970	
          2.14000000	          0.51486199	         -0.79258411	         -0.32669183	         -0.37579894	         -0.55118261	          0.74496502	         -0.77051430	         -0.26078373	         -0.58163525	         -2.23369193	         -0.33280122	          0.99470293	
          2.15000000	          0.52143442	         -0.78603171	         -0.33205465	         -0.37552537	         -0.56082467	          0.73787288	         -0.76621592	         -0.26005737	         -0.58760814	         -2.24331024	         -0.33848099	          0.98507548	
          2.16000000	          0.52807124	         -0.77937660	         -0.33721340	         -0.37514828	         -0.57034917	          0.73072949	         -0.76184285	         -0.25937220	         -0.59356679	         -2.25298846	         -0.34395536	          0.97529285	
          2.17000000	          0.53476856	         -0.77262297	         -0.34216420	         -0.37467000	         -0.57975342	          0.72353878	         -0.75739355	         -0.25872713	         -0.59951254	         -2.26272507	         -0.34921916	          0.96536039	
          2.18000000	          0.54152266	         -0.76577490	         -0.34690346	         -0.37409267	         -0.58903502	          0.71630469	         -0.75286644	         -0.25812118	         -0.60544659	         -2.27251819	         -0.35426752	          0.95528350	
          2.19000000	          0.54832984	         -0.75883645	         -0.35142798	         -0.37341817	         -0.59819184	          0.70903131	         -0.74826015	         -0.25755343	         -0.61136976	         -2.28236537	         -0.35909594	          0.94506771	
          2.20000000	          0.55518633	         -0.75181164	         -0.35573502	         -0.37264798	         -0.60722188	          0.70172292	         -0.74357355	         -0.25702304	         -0.61728238	         -2.29226338	         -0.36370041	          0.93471881	
          2.21000000	          0.56208814	         -0.74470451	         -0.35982235	         -0.37178317	         -0.61612335	          0.69438411	         -0.73880593	         -0.25652917	         -0.62318423	         -2.30220815	         -0.36807749	          0.92424297	
          2.22000000	          0.56903102	         -0.73751913	         -0.36368837	         -0.37082439	         -0.62489452	          0.68701973	         -0.73395706	         -0.25607102	         -0.62907445	         -2.31219469	         -0.37222436	          0.91364686	
          2.23000000	          0.57601035	         -0.73025970	         -0.36733206	         -0.36977193	         -0.63353376	          0.67963497	         -0.72902729	         -0.25564769	         -0.63495154	         -2.32221709	         -0.37613892	          0.90293767	
          2.24000000	          0.58302114	         -0.72293048	         -0.37075310	         -0.36862579	         -0.64203952	          0.67223528	         -0.72401752	         -0.25525823	         -0.64081344	         -2.33226861	         -0.37981978	          0.89212320	
          2.25000000	          0.59005800	         -0.71553590	         -0.37395177	         -0.36738578	         -0.65041031	          0.66482638	         -0.71892923	         -0.25490156	         -0.64665752	         -2.34234171	         -0.38326629	          0.88121179	
          2.26000000	          0.59711523	         -0.70808046	         -0.37692899	         -0.36605164	         -0.65864472	          0.65741413	         -0.71376439	         -0.25457651	         -0.65248080	         -2.35242831	         -0.38647849	          0.87021229	
          2.27000000	          0.60418687	         -0.70056878	         -0.37968620	         -0.36462311	         -0.66674143	          0.65000450	         -0.70852538	         -0.25428182	         -0.65827999	         -2.36251986	         -0.38945707	          0.85913394	
          2.28000000	          0.61126682	         -0.69300555	         -0.38222531	         -0.36310005	         -0.67469927	          0.64260350	         -0.70321492	         -0.25401617	         -0.66405163	         -2.37260755	         -0.39220326	          0.84798629	
          2.29000000	          0.61834888	         -0.68539551	         -0.38454863	         -0.36148248	         -0.68251711	          0.63521713	         -0.69783599	         -0.25377821	         -0.66979217	         -2.38268238	         -0.39471880	          0.83677911	
          2.30000000	          0.62542682	         -0.67774350	         -0.38665882	         -0.35977062	         -0.69019397	          0.62785140	         -0.69239179	         -0.25356662	         -0.67549802	         -2.39273528	         -0.39700587	          0.82552231	
          2.31000000	          0.63249437	         -0.67005438	         -0.38855887	         -0.35796489	         -0.69772893	          0.62051228	         -0.68688573	         -0.25338009	         -0.68116556	         -2.40275704	         -0.39906705	          0.81422595	
          2.32000000	          0.63954524	         -0.66233313	         -0.39025211	         -0.35606586	         -0.70512112	          0.61320576	         -0.68132150	         -0.25321737	         -0.68679107	         -2.41273838	         -0.40090540	          0.80290023	
          2.33000000	          0.64657305	         -0.65458478	         -0.39174233	         -0.35407429	         -0.71236977	          0.60593788	         -0.67570311	         -0.25307722	         -0.69237073	         -2.42266983	         -0.40252451	          0.79155547	
          2.34000000	          0.65357130	         -0.64681449	         -0.39303381	         -0.35199097	         -0.71947417	          0.59871469	         -0.67003501	         -0.25295839	         -0.69790053	         -2.43254177	         -0.40392860	          0.78020220	
          2.35000000	          0.66053335	         -0.63902745	         -0.39413146	         -0.34981680	         -0.72643371	          0.59154228	         -0.66432214	         -0.25285960	         -0.70337623	         -2.44234442	         -0.40512263	          0.76885109	
          2.36000000	          0.66745242	         -0.63122893	         -0.39504089	         -0.34755268	         -0.73324796	          0.58442670	         -0.65856997	         -0.25277949	         -0.70879343	         -2.45206792	         -0.40611236	          0.75751288	
